<?xml version="1.0" encoding="utf-8"?>
<!-- Generator: Adobe Illustrator 19.1.1, SVG Export Plug-In . SVG Version: 6.00 Build 0)  -->
<svg version="1.1" id="Ebene_1" xmlns="http://www.w3.org/2000/svg" xmlns:xlink="http://www.w3.org/1999/xlink" x="0px" y="0px"
	 viewBox="0 0 960 560" style="enable-background:new 0 0 960 560;" xml:space="preserve">
<style type="text/css">
	.st0{opacity:0.51;}
</style>
<path d="M338.6,135.1c10.4,0,16.1,7.1,14.5,16.7l-1.4,8.3c-1.4,8.5-8.1,14.3-16.6,14.3c-2.7,0-5.2-0.6-7-1.6l-2.4,13.2
	c-0.1,0.7-0.6,1.2-1.3,1.2H316c-0.9,0-1.2-0.6-1.1-1.4l8.1-46.4c0.1-0.6,0.4-1,1-1.3C328.2,136.2,333.8,135.1,338.6,135.1z
	 M342.2,151c0.9-4.7-0.7-6.5-4.6-6.5c-1.7,0-3.5,0.4-4.8,1.1l-3.2,18.3c1.2,0.9,3,1.4,4.6,1.4c3.7,0,5.9-2.2,6.7-6.6L342.2,151z"/>
<path d="M390,136c1,0,1.4,0.6,0.8,1.4l-12.2,17.4l6.7,17.2c0.4,0.9-0.1,1.4-1,1.4h-8.9c-0.7,0-1.2-0.4-1.4-1.1l-3.2-10.4l-7.2,10.7
	c-0.4,0.6-0.9,0.9-1.5,0.9h-9.4c-1.1,0-1.4-0.7-0.9-1.5L365,154l-6.1-16.6c-0.3-0.9,0.1-1.4,0.9-1.4h8.7c0.7,0,1.2,0.3,1.4,1
	l2.9,10.7l6.7-10.9c0.3-0.6,0.7-0.8,1.4-0.8H390z"/>
<path d="M430.7,135c9.9,0,15,7.3,13.2,17.6l-3.6,19.7c-0.1,0.7-0.6,1.2-1.3,1.2h-8.1c-0.9,0-1.2-0.6-1.2-1.4l3.7-21
	c0.8-4.6-0.9-6.6-4.3-6.6c-1.7,0-3.5,0.6-4.8,1.3c0.4,2,0.4,4.4-0.1,6.8l-3.5,19.7c-0.1,0.7-0.6,1.2-1.3,1.2h-8.1
	c-0.9,0-1.3-0.6-1.2-1.4l3.7-21c0.8-4.6-0.7-6.6-4-6.6c-1.6,0-3.2,0.4-4.2,0.9l-4.9,27c-0.1,0.8-0.6,1.2-1.3,1.2h-8.3
	c-0.8,0-1.2-0.5-1.1-1.4l6-32.9c0.1-0.6,0.4-1,1.1-1.3c4.2-1.8,9.5-2.9,14-2.9c3.6,0,6.7,1.1,8.9,2.9
	C423.4,136.1,427.1,135,430.7,135z"/>
<path d="M461.2,174.4c-10.1,0-15.2-5.8-13.8-13.6c1.2-7,7.1-10.1,16.3-10.1c2.2,0,4.3,0.2,6.1,0.6l0.1-1.2c0.6-3.5-0.4-5.5-4.9-5.5
	c-3.2,0-6.4,0.6-8.6,1.7c-0.8,0.4-1.4,0.2-1.7-0.6l-2.2-5.9c-0.2-0.6-0.2-1.2,0.2-1.4c3.5-2.1,8.9-3.4,14.7-3.4
	c9.8,0,14.8,6.5,12.9,17.3l-3.2,18.2c-0.1,0.6-0.4,1.2-1.1,1.4C472.1,173.3,466.8,174.4,461.2,174.4z M462.6,165.4
	c1.7,0,3.7-0.3,5-0.6l1-6.3c-1.4-0.3-3-0.5-4.6-0.5c-3.5,0-5.4,1.2-5.8,3.3C457.7,164.1,459.4,165.4,462.6,165.4z"/>
<path d="M520.9,136c1.1,0,1.4,0.7,0.6,1.5L507.4,152l9.3,20c0.4,0.9,0,1.4-0.9,1.4h-9.1c-0.7,0-1.2-0.3-1.4-1l-5.4-12.7l-3.2,3
	l-1.7,9.6c-0.1,0.7-0.6,1.2-1.3,1.2h-8.4c-0.8,0-1.2-0.6-1.2-1.4l8.7-49c0.1-0.7,0.6-1.2,1.3-1.2h8.4c0.9,0,1.3,0.6,1.2,1.4
	l-4.3,24.5l10.2-11.2c0.4-0.5,0.9-0.6,1.5-0.6H520.9z"/>
<path class="st0" d="M359.9,177.7l205.6,0.3c0.8,0,1.3,0.5,1.1,1.4l-1.3,7.2c-0.1,0.7-0.6,1.1-1.4,1.1l-232.2-0.5
	c-0.8-0.1-1.3-0.6-1.1-1.4l1.2-7.2c0.1-0.7,0.7-1.1,1.4-1.1l11.5,0.1L359.9,177.7z"/>
<path d="M540,135c9.2,0,15.8,4.9,13.8,15.5l-1.2,7c-0.1,0.7-0.6,1.1-1.3,1.1h-20l-0.2,1c-0.7,3.8,1,5.7,5,5.7c3.2,0,6.5-1.2,9.4-2.9
	c0.7-0.5,1.3-0.4,1.7,0.4l3,5.5c0.3,0.7,0.2,1.4-0.4,1.7c-3.9,2.7-8.8,4.4-15,4.4c-9.4,0-16-5.8-14.3-15.1l1.9-10.4
	C523.8,139.4,531.3,135,540,135z M543.4,149.6c0.5-2.9-0.7-5.4-4.4-5.4c-3.1,0-5.5,1.9-6.1,5.3l-0.4,1.9h10.5L543.4,149.6z"/>
<path d="M557.5,173.5c-0.9,0-1.3-0.6-1.2-1.4l5.7-32.7c0.1-0.6,0.5-1.1,1.1-1.4c4.2-1.9,8.8-3,13.3-3c1.9,0,3.9,0.2,6,0.6
	c0.8,0.1,1.2,0.7,1,1.4l-1.3,7.1c-0.1,0.8-0.6,1.2-1.4,1.1c-1.2-0.2-2.7-0.4-4.2-0.4c-1.9,0-3.5,0.4-4.7,0.9l-4.7,26.6
	c-0.1,0.7-0.6,1.2-1.3,1.2H557.5z"/>
<path d="M336,180"/>
</svg>
